<svg xmlns="http://www.w3.org/2000/svg" xmlns:xlink="http://www.w3.org/1999/xlink" id="Layer_1" x="0" y="0" enable-background="new -18 22 158 158" version="1.1" viewBox="-18 22 158 158" xml:space="preserve"><style type="text/css">.st0{fill:#727272}.st1{fill:#fff}</style><circle cx="61" cy="101" r="79" class="st0"/><g><path d="M53.4,121.4l-0.3-3.5c-0.8-7.3,1.6-15.4,8.4-23.5c6.1-7.2,9.5-12.5,9.5-18.6c0-6.9-4.4-11.6-12.9-11.7 c-4.9,0-10.3,1.6-13.7,4.2l-3.3-8.6c4.5-3.3,12.2-5.4,19.5-5.4c15.7,0,22.7,9.7,22.7,20c0,9.3-5.2,15.9-11.7,23.7 c-6,7.1-8.2,13.1-7.8,20l0.1,3.5H53.4z M50.4,140.4c0-5,3.4-8.6,8.2-8.6s8,3.5,8,8.6c0,4.8-3.1,8.4-8.2,8.4 C53.6,148.9,50.4,145.2,50.4,140.4z" class="st1"/></g></svg>